{"title":"Love Rosie - Scrivimi Ancora (2014).DVDrip.XviD - Italian Englis","uid":12189046,"size":1862976122,"categoryP":"video","categoryS":"movies","magnet":"?xt=urn:btih:a83c8e1dffd90476ad70640abc34bbf41e7a8e66&amp;dn=Love+Rosie+-+Scrivimi+Ancora+%282014%29.DVDrip.XviD+-+Italian+Englis&amp;tr=udp%3A%2F%2Ftracker.openbittorrent.com%3A80&amp;tr=udp%3A%2F%2Fopen.demonii.com%3A1337&amp;tr=udp%3A%2F%2Ftracker.coppersurfer.tk%3A6969&amp;tr=udp%3A%2F%2Fexodus.desync.com%3A6969","seeders":5,"leechers":3,"uploader":"robbyrs4","files":3,"time":1438619915,"description":"Scrivimi Ancora - Love Rosie (2014).DVDrip.XviD - Italian English.Ac3.5.1.Sub.ita.eng.MIRCrew\n\n[center]\n\n[color=red][b][img]http://s19.postimg.org/w9ws99nmb/banner_mircrew_original_2.png[/img]\n\n[u]NO FOUND ONLY ORIGINAL RELEASE[/u]\n\nScrivimi Ancora - Love Rosie (2014)\n\n[img]http://extraimago.com/images/2015/08/03/w.jpg[/img]\n\n\n[URL=http://www.imdb.com/title/tt1638002/][IMG]http://www.userlogos.org/files/logos/Sucka/imdb_new.png[/IMG][/URL]  \n\n[img]http://s19.postimg.org/vz5tzn42b/1_scheda.png[/img]\n\nTitolo originale \tLove, Rosie\nLingua originale \tinglese\nPaese di produzione \tGermania, Regno Unito\nAnno \t2014\nDurata \t102 min\nRapporto \t2,35 : 1\nGenere \tsentimentale, commedia\nRegia \tChristian Ditter\nSoggetto \tCecelia Ahern (romanzo)\nSceneggiatura \tJuliette Towhidi\nProduttore \tRobert Kulzer, Simon Brooks\nCasa di produzione \tCanyon Creek Films\nConstantin Film Produktion\nDistribuzione (Italia) \tM2 Pictures\nMontaggio \tTony Cranstoun\nMusiche \tRalf Wengenmayr\nScenografia \tMatthew Davies\n\n\n[img]http://s19.postimg.org/q8fnlww2b/1_cast.png[/img]\n\n\n    Lily Collins: Rosie Dunne\n    Sam Claflin: Alex Stewart\n    Christian Cooke: Greg\n    Tamsin Egerton: Sally\n    Suki Waterhouse: Bethany\n    Jaime Winstone: Ruby\n    Art Parkinson: Gary Dunne\n    Jamie Beamish: Phil\n    Lorcan Cranitch: Dennis Dunne\n    Ger Ryan: Alice Dunne\n\n   \n[img]http://s19.postimg.org/okgi79i6r/1_trama.png[/img]\n\nRosie e Alex sono legati da una forte amicizia fin dall'infanzia. Alex lascia Dublino e Rosie sogna di raggiungerlo per viaggiare e studiare negli Stati Uniti ma rimane incinta e non riesce a realizzare il suo sogno. Una volta cresciuti Rosie e Alex fanno delle scelte sbagliate e rischiano di separarsi, ma grazie ad una fitta corrispondenza, fatta di lettere, e-mail, bigliettini, sms e cartoline riescono a............\n\n[img]http://s19.postimg.org/fzn6g380j/1_story.png[/img]\n\nRosie and Alex have been best friends since they were 5, so they couldn't possibly be right for one another...or could they? When it comes to love, life and making the right choices, these two are their own worst enemies.........\n\n[img]http://extraimago.com/images/2015/08/03/vlcsnap-2015-08-03-16h26m47s235.png[/img]\n[img]http://extraimago.com/images/2015/08/03/vlcsnap-2015-08-03-16h26m54s36.png[/img]\n[img]http://extraimago.com/images/2015/08/03/vlcsnap-2015-08-03-16h26m59s97.png[/img]\n\n\n[IMG]http://img153.imageshack.us/img153/3158/restateinseedblood.gif[/img]\n\n\n[img]http://imgur.com/lvhU6.gif[/img]\n\n\n[img]http://s19.postimg.org/a2jaz9qvn/1_dati.png[/img]\n\n\n[spoiler]\nGeneral\nComplete name                            : Scrivimi Ancora - Love Rosie (2014).ita.eng.subNUita.MIRCrewScrivimi Ancora - Love Rosie (2014).ita.eng.subNUita.MIRCrew.avi\nFormat                                   : AVI\nFormat/Info                              : Audio Video Interleave\nFile size                                : 1.73 GiB\nDuration                                 : 1h 42mn\nOverall bit rate                         : 2 415 Kbps\nMovie name                               : MIRCrew by robbyrs\nWriting application                      : VirtualDubMod 1.5.10.2 (build 2540/release)\nWriting library                          : VirtualDubMod build 2540/release\n\nVideo\nID                                       : 0\nFormat                                   : MPEG-4 Visual\nFormat profile                           : Simple@L3\nFormat settings, BVOP                    : No\nFormat settings, QPel                    : No\nFormat settings, GMC                     : No warppoints\nFormat settings, Matrix                  : Default (H.263)\nCodec ID                                 : XVID\nCodec ID/Hint                            : XviD\nDuration                                 : 1h 42mn\nBit rate                                 : 1 505 Kbps\nWidth                                    : 720 pixels\nHeight                                   : 304 pixels\nDisplay aspect ratio                     : 2.35:1\nFrame rate                               : 24.000 fps\nColor space                              : YUV\nChroma subsampling                       : 4:2:0\nBit depth                                : 8 bits\nScan type                                : Progressive\nCompression mode                         : Lossy\nBits/(Pixel*Frame)                       : 0.287\nStream size                              : 1.08 GiB (62%)\nWriting library                          : XviD 64\n\nAudio #1\nID                                       : 1\nFormat                                   : AC-3\nFormat/Info                              : Audio Coding 3\nMode extension                           : CM (complete main)\nCodec ID                                 : 2000\nDuration                                 : 1h 42mn\nBit rate mode                            : Constant\nBit rate                                 : 448 Kbps\nChannel(s)                               : 6 channels\nChannel positions                        : Front: L C R, Side: L R, LFE\nSampling rate                            : 48.0 KHz\nBit depth                                : 16 bits\nCompression mode                         : Lossy\nStream size                              : 330 MiB (19%)\nAlignment                                : Split accross interleaves\nInterleave, duration                     : 42 ms (1.00 video frame)\nInterleave, preload duration             : 500 ms\n\nAudio #2\nID                                       : 2\nFormat                                   : AC-3\nFormat/Info                              : Audio Coding 3\nMode extension                           : CM (complete main)\nCodec ID                                 : 2000\nDuration                                 : 1h 42mn\nBit rate mode                            : Constant\nBit rate                                 : 448 Kbps\nChannel(s)                               : 6 channels\nChannel positions                        : Front: L C R, Side: L R, LFE\nSampling rate                            : 48.0 KHz\nBit depth                                : 16 bits\nCompression mode                         : Lossy\nStream size                              : 330 MiB (19%)\nAlignment                                : Split accross interleaves\nInterleave, duration                     : 42 ms (1.00 video frame)\nInterleave, preload duration             : 500 ms\n\n\n[/spoiler]\n\n[/color][/b][/center]","torrent":{"xt":"urn:btih:a83c8e1dffd90476ad70640abc34bbf41e7a8e66","amp;dn":"Love+Rosie+-+Scrivimi+Ancora+%282014%29.DVDrip.XviD+-+Italian+Englis","amp;tr":["udp%3A%2F%2Ftracker.openbittorrent.com%3A80","udp%3A%2F%2Fopen.demonii.com%3A1337","udp%3A%2F%2Ftracker.coppersurfer.tk%3A6969","udp%3A%2F%2Fexodus.desync.com%3A6969"],"infoHash":"a83c8e1dffd90476ad70640abc34bbf41e7a8e66","infoHashBuffer":{"type":"Buffer","data":[168,60,142,29,255,217,4,118,173,112,100,10,188,52,187,244,30,122,142,102]},"announce":[],"urlList":[]}}